<?xml version="1.0" standalone="no"?>
<!DOCTYPE svg PUBLIC "-//W3C//DTD SVG 20010904//EN"
 "http://www.w3.org/TR/2001/REC-SVG-20010904/DTD/svg10.dtd">
<svg version="1.0" xmlns="http://www.w3.org/2000/svg"
 width="573.000000pt" height="376.000000pt" viewBox="0 0 573.000000 376.000000"
 preserveAspectRatio="xMidYMid meet">
<metadata>
Created by potrace 1.16, written by Peter Selinger 2001-2019
</metadata>
<g transform="translate(0.000000,376.000000) scale(0.100000,-0.100000)"
fill="#000000" stroke="none">
<path d="M1880 3719 c-151 -10 -285 -21 -297 -24 -12 -3 -27 -14 -33 -25 -6
-10 -73 -240 -149 -509 l-138 -491 -68 -64 c-78 -74 -125 -141 -125 -176 1
-34 43 -80 75 -80 30 0 30 2 5 -80 -17 -55 -20 -94 -20 -262 0 -133 4 -199 11
-204 23 -14 419 -64 512 -64 84 0 99 -2 104 -17 4 -10 11 -21 17 -25 6 -4 90
-8 186 -8 154 0 201 4 393 36 120 20 220 34 222 32 3 -2 -166 -500 -189 -558
-5 -12 3 -14 46 -12 29 2 84 -3 121 -11 67 -14 69 -13 77 7 4 12 47 136 96
277 l88 256 205 11 c112 7 207 10 209 7 3 -3 19 -86 36 -185 l31 -181 21 23
c12 13 76 96 144 186 l123 163 126 -6 c244 -11 291 -16 291 -30 0 -32 -191
-1449 -196 -1454 -5 -5 -607 -102 -611 -98 -1 1 41 166 92 367 52 201 92 366
91 368 -2 1 -56 -68 -121 -155 l-118 -157 -23 84 c-13 47 -33 126 -46 177 -12
51 -25 93 -28 93 -3 0 -23 -73 -44 -162 -21 -90 -56 -238 -78 -329 l-40 -166
-96 -7 c-53 -4 -131 -13 -172 -21 -41 -8 -128 -16 -193 -17 -102 -3 -117 -1
-117 13 0 9 -18 24 -42 35 -24 10 -64 34 -91 52 l-48 33 3 -158 3 -158 210 -3
c185 -2 440 11 628 34 l47 6 0 -41 0 -41 308 0 c288 0 318 2 480 29 103 16
179 33 187 42 8 8 21 66 30 134 9 66 18 130 20 142 l5 21 52 -20 c41 -15 87
-21 213 -25 256 -9 370 13 437 84 32 33 36 78 44 432 5 247 -3 303 -54 371
-68 90 -105 100 -369 100 l-203 0 5 23 c28 127 36 545 11 566 -18 15 -263 31
-496 31 l-195 0 3 78 c2 42 5 82 7 89 2 6 39 14 92 18 48 3 105 12 126 20 30
11 45 11 65 3 19 -8 300 -12 967 -13 517 -1 950 0 963 2 l22 5 0 224 0 224
-22 4 c-13 3 -32 7 -43 8 -37 6 -23 33 20 38 l40 5 3 219 c3 239 3 236 -54
236 -27 0 -32 4 -38 31 -3 17 -6 44 -6 60 0 18 -7 32 -19 39 -26 13 -416 13
-442 0 -13 -7 -19 -21 -19 -43 0 -18 -3 -42 -6 -54 -6 -23 -8 -23 -200 -23
l-194 0 0 74 c0 58 -4 79 -19 97 -19 24 -21 24 -225 24 -200 0 -206 -1 -228
-23 -19 -18 -23 -36 -26 -97 l-4 -75 -197 0 c-149 0 -210 -4 -249 -15 -47 -14
-56 -14 -100 1 -40 14 -89 16 -347 13 -165 -2 -391 -2 -502 -1 l-203 2 -1 213
c-1 284 -10 405 -29 417 -24 15 -439 9 -740 -11z m570 -963 l0 -794 -22 -5
c-58 -13 -479 -80 -482 -76 -3 2 6 85 19 184 35 257 39 235 -45 235 -38 0 -70
-3 -70 -7 -1 -21 -79 -355 -84 -361 -4 -3 -95 6 -204 21 -108 15 -204 27 -212
27 -43 0 -42 6 174 770 l213 755 39 3 c107 8 585 39 627 41 l47 1 0 -794z
m2990 214 l0 -70 55 0 55 0 0 -40 0 -40 -56 0 -55 0 3 -200 c3 -223 2 -220 71
-220 l37 0 0 -45 0 -45 -68 0 c-75 0 -103 13 -127 60 -12 23 -15 72 -15 240
l0 210 -55 0 -55 0 0 40 0 40 55 0 55 0 0 70 0 70 50 0 50 0 0 -70z m-2514
-79 c52 -24 101 -83 119 -145 8 -27 15 -89 15 -136 0 -136 -34 -220 -108 -271
-53 -36 -160 -39 -224 -6 l-47 24 -3 -131 -3 -131 -50 0 -50 0 -3 403 -2 402
50 0 c50 0 50 0 50 -32 l0 -31 23 21 c55 52 158 67 233 33z m620 0 c52 -24
101 -83 119 -145 8 -27 15 -89 15 -136 0 -136 -34 -220 -108 -271 -53 -36
-160 -39 -224 -6 l-47 24 -3 -131 -3 -131 -52 -3 -53 -3 0 405 0 406 50 0 c49
0 50 0 50 -32 l0 -31 23 21 c55 52 158 67 233 33z m603 4 c66 -23 108 -62 142
-131 28 -56 32 -75 32 -147 1 -190 -96 -307 -254 -307 -90 0 -137 18 -190 70
-59 59 -79 117 -79 226 0 107 24 174 83 232 68 67 174 90 266 57z m931 -8 c78
-41 85 -65 88 -334 l3 -233 -56 0 -56 0 3 214 c3 205 2 216 -18 243 -42 56
-134 55 -191 -2 l-33 -33 0 -211 0 -211 -55 0 -55 0 0 290 0 290 50 0 50 0 0
-35 0 -36 23 22 c63 60 171 76 247 36z m-522 -279 l2 -288 -55 0 -55 0 0 291
0 290 53 -3 52 -3 3 -287z m-1563 -510 c2 -13 6 -55 7 -95 l3 -72 -68 -6 c-38
-4 -69 -6 -71 -4 -1 2 0 45 3 94 l6 90 45 6 c25 3 51 7 57 7 7 1 15 -8 18 -20z
m1446 -989 c93 -28 148 -112 157 -241 l5 -78 -198 0 -197 0 7 -37 c14 -77 56
-124 126 -143 53 -15 114 1 154 40 l33 32 31 -21 c17 -13 31 -28 31 -36 0 -21
-76 -80 -119 -93 -49 -15 -143 -15 -192 0 -51 15 -114 70 -141 122 -31 58 -37
212 -13 287 21 63 101 149 155 166 47 15 114 15 161 2z"/>
<path d="M1983 2868 c-29 -127 -51 -233 -48 -236 2 -3 28 2 57 10 l52 14 22
185 c13 101 25 201 28 222 6 36 6 37 -26 37 l-33 0 -52 -232z"/>
<path d="M2750 2809 c-14 -5 -35 -20 -47 -31 -22 -20 -23 -29 -23 -171 l0
-149 30 -28 c70 -65 176 -44 223 44 17 33 21 59 22 131 0 100 -18 152 -67 188
-30 23 -103 31 -138 16z"/>
<path d="M3370 2809 c-14 -5 -35 -20 -47 -31 -22 -20 -23 -29 -23 -171 l0
-149 30 -28 c70 -65 176 -44 223 44 17 33 21 59 22 131 0 100 -18 152 -67 188
-30 23 -103 31 -138 16z"/>
<path d="M3985 2800 c-67 -43 -101 -164 -75 -270 43 -181 257 -181 300 0 26
107 -8 231 -73 270 -42 26 -112 26 -152 0z"/>
<path d="M4305 1020 c-42 -17 -85 -83 -85 -131 0 -18 8 -19 140 -19 l140 0 -7
33 c-15 80 -62 127 -127 126 -22 0 -50 -4 -61 -9z"/>
<path d="M703 2854 c-50 -44 -150 -190 -158 -233 -2 -11 -9 -29 -15 -41 -28
-53 20 -130 81 -130 37 0 81 39 98 86 19 53 76 156 104 186 26 28 46 73 45
101 -2 28 -53 77 -80 77 -13 0 -46 -20 -75 -46z"/>
<path d="M833 2562 c-30 -26 -103 -132 -103 -150 0 -5 -10 -31 -22 -58 -19
-43 -25 -73 -18 -89 3 -7 7 -23 9 -35 0 -5 8 -10 16 -10 8 0 15 -4 15 -10 0
-17 40 -11 70 10 28 20 58 67 65 103 2 10 27 55 55 100 27 46 50 86 50 91 0 4
-12 22 -26 39 -34 41 -70 44 -111 9z"/>
<path d="M479 2361 c-28 -11 -70 -49 -74 -68 -15 -66 -35 -163 -39 -193 -2
-19 -7 -48 -11 -65 -11 -50 -13 -293 -3 -343 11 -54 13 -62 21 -82 4 -8 16
-42 28 -75 12 -33 28 -67 35 -76 8 -8 14 -20 14 -26 0 -22 134 -180 183 -216
57 -42 118 -76 151 -84 61 -14 143 -20 152 -10 4 3 -13 26 -37 51 -24 25 -44
49 -45 53 0 4 -4 15 -7 23 -50 115 -42 267 27 510 24 83 76 204 120 280 19 32
32 61 29 64 -4 3 -2 6 4 6 16 0 64 75 73 114 6 30 4 40 -15 60 -36 39 -78 42
-120 9 -81 -63 -218 -312 -241 -438 -2 -11 -13 -63 -25 -115 -11 -52 -22 -103
-24 -114 -6 -24 -11 -29 -25 -21 -6 4 -8 24 -5 53 11 91 13 99 39 202 20 75
27 107 28 118 1 6 5 12 10 12 4 0 7 3 6 8 -1 4 4 20 10 35 16 38 16 38 -13 77
-40 54 -97 49 -127 -11 -26 -52 -56 -158 -63 -224 -4 -33 -9 -63 -12 -68 -10
-17 -21 5 -18 35 3 17 6 60 7 95 1 34 5 63 8 63 3 0 7 16 8 36 2 20 7 45 13
55 5 11 8 19 6 19 -3 0 7 30 20 68 30 80 30 118 1 149 -24 26 -67 42 -89 34z"/>
<path d="M279 1613 c0 -4 -3 -28 -6 -53 -8 -60 -7 -232 1 -300 4 -30 16 -90
27 -135 11 -44 22 -87 24 -95 2 -8 4 -16 5 -17 2 -2 3 -6 4 -10 6 -30 62 -161
74 -175 8 -10 12 -18 8 -18 -4 0 2 -14 14 -30 12 -17 18 -30 14 -30 -4 0 2
-10 13 -22 11 -13 38 -49 60 -80 66 -96 203 -248 223 -248 6 0 10 -4 10 -9 0
-11 50 -48 70 -53 8 -2 21 -11 30 -20 8 -9 22 -18 30 -20 8 -2 21 -11 28 -20
7 -10 18 -18 25 -18 8 0 8 3 -1 12 -18 18 -15 41 8 61 11 9 20 14 20 11 0 -3
11 7 25 22 14 15 25 24 25 20 0 -4 11 5 25 20 14 15 25 23 25 18 0 -5 4 -4 8
1 6 9 76 67 149 123 13 9 35 27 50 40 50 41 53 43 53 37 0 -3 11 6 25 21 14
15 25 24 25 21 0 -3 21 14 47 39 27 24 51 44 54 44 3 0 19 11 35 25 45 39 53
46 60 44 8 -1 57 41 52 46 -4 4 -136 18 -174 18 -25 0 -31 4 -30 21 1 16 8 21
31 21 17 0 35 -3 40 -6 6 -4 25 -6 43 -5 17 1 32 -1 32 -4 0 -4 7 -7 15 -7 8
0 11 5 8 10 -3 6 19 8 56 5 50 -3 64 -1 78 14 16 18 16 18 0 12 -9 -3 -17 -11
-17 -17 0 -6 -3 -7 -7 -4 -3 4 3 16 15 27 13 12 23 16 27 9 10 -15 35 9 35 33
0 28 -54 91 -100 117 -22 12 -40 19 -40 14 0 -4 -4 -3 -8 4 -4 7 -24 14 -44
17 -20 2 -44 8 -55 14 -19 9 -90 15 -185 15 -42 0 -63 -5 -78 -18 -11 -10 -20
-15 -20 -11 0 4 -13 -2 -30 -14 -16 -12 -30 -18 -30 -14 0 4 -9 -1 -21 -12
-12 -10 -24 -18 -28 -18 -3 1 -16 -2 -29 -7 -13 -5 -35 -11 -50 -14 -15 -3
-38 -7 -52 -10 -57 -13 -161 -13 -221 1 -35 8 -70 15 -76 16 -7 1 -13 5 -13
10 0 5 -4 6 -10 3 -5 -3 -10 -2 -10 3 0 6 -12 13 -26 16 -14 4 -37 18 -50 31
-13 13 -24 22 -24 20 0 -2 -27 24 -60 57 -33 34 -60 65 -60 70 0 4 0 10 1 13
0 3 -11 20 -25 36 -15 17 -26 36 -26 43 0 6 -6 18 -12 25 -7 6 -13 15 -14 19
0 4 -7 23 -16 42 -8 19 -21 53 -28 75 -7 22 -18 46 -24 54 -6 8 -10 17 -8 20
2 3 -1 7 -7 9 -6 2 -11 0 -12 -5z"/>
<path d="M2435 1074 c-11 -3 -39 -12 -62 -20 -41 -15 -42 -16 -79 -122 -20
-59 -41 -112 -46 -119 -10 -12 -1 -15 117 -34 39 -6 80 -17 91 -25 21 -13 23
-9 76 144 34 100 50 159 43 164 -14 9 -116 18 -140 12z"/>
<path d="M2185 618 c-46 -130 -63 -183 -60 -186 10 -10 25 13 25 39 0 39 10
37 50 -12 31 -39 113 -99 134 -99 11 0 102 247 95 255 -3 2 -57 6 -122 9 -90
5 -119 3 -122 -6z"/>
</g>
</svg>
